<svg width="26" height="23" viewBox="0 0 26 23" fill="none" xmlns="http://www.w3.org/2000/svg">
<path d="M4.82857 0C2.37577 0 0.371429 2.06858 0.371429 4.6C0.371429 7.13145 2.37577 9.19999 4.82857 9.19999C7.28137 9.19999 9.28571 7.13145 9.28571 4.6C9.28571 2.06858 7.28137 0 4.82857 0ZM14.4857 0C12.0329 0 10.0286 2.06858 10.0286 4.6C10.0286 7.13145 12.0329 9.19999 14.4857 9.19999C16.9385 9.19999 18.9429 7.13145 18.9429 4.6C18.9429 2.06858 16.9385 0 14.4857 0ZM4.82857 1.53333C6.47842 1.53333 7.8 2.89727 7.8 4.6C7.8 6.30276 6.47842 7.66666 4.82857 7.66666C3.17872 7.66666 1.85714 6.30276 1.85714 4.6C1.85714 2.89727 3.17872 1.53333 4.82857 1.53333ZM14.4857 1.53333C16.1356 1.53333 17.4571 2.89727 17.4571 4.6C17.4571 6.30276 16.1356 7.66666 14.4857 7.66666C12.8359 7.66666 11.5143 6.30276 11.5143 4.6C11.5143 2.89727 12.8359 1.53333 14.4857 1.53333ZM0.742857 9.96666C0.353897 9.96669 3.71429e-05 10.3319 0 10.7333V22.2333C3.71429e-05 22.6348 0.353897 23 0.742857 23H18.5714C18.9604 23 19.3142 22.6348 19.3143 22.2333V20.1729L25.0598 21.8141C25.4964 21.9382 25.995 21.5506 26 21.0833V11.8833C25.9673 11.2627 25.5223 11.0414 25.0598 11.1406L19.3143 12.7937V10.7333C19.305 10.388 18.9676 9.96781 18.5714 9.96666H0.742857ZM1.48571 11.5H17.8286V21.4667H1.48571V11.5ZM24.5143 12.8896V20.0771L19.3143 18.5797V14.375L24.5143 12.8896Z" fill="#A9D8B4"/>
</svg>
