<svg width="34" height="33" viewBox="0 0 34 33" fill="none" xmlns="http://www.w3.org/2000/svg">
<rect x="12.1967" y="11.5068" width="10.5625" height="18.8214" rx="5.28125" stroke="#FFFFF1"/>
<rect x="16.9275" y="14.7598" width="1.10119" height="3.30357" rx="0.550596" fill="#FFFFF1"/>
<path fill-rule="evenodd" clip-rule="evenodd" d="M18.7051 5.96542C18.6888 6.14094 18.5376 6.27644 18.3678 6.2684C18.1972 6.25993 18.0651 6.1096 18.0714 5.93387C18.0784 5.75709 18.2292 5.62243 18.4098 5.63069C18.5885 5.64 18.7212 5.79012 18.7051 5.96542Z" fill="#FFFFF1"/>
<path fill-rule="evenodd" clip-rule="evenodd" d="M20.4641 6.23658C20.4241 6.41252 20.2619 6.50441 20.0934 6.47943C19.9253 6.45402 19.8127 6.29227 19.8421 6.11844C19.8715 5.94462 20.0396 5.82563 20.2175 5.85315C20.3953 5.88025 20.5027 6.06805 20.4641 6.23658Z" fill="#FFFFF1"/>
<path fill-rule="evenodd" clip-rule="evenodd" d="M22.1714 6.74475C22.1102 6.9101 21.9305 6.99669 21.7713 6.93784C21.6114 6.87919 21.5244 6.6952 21.5763 6.52646C21.6279 6.35793 21.8072 6.27176 21.9764 6.33295C22.1454 6.39477 22.2326 6.57939 22.1714 6.74475Z" fill="#FFFFF1"/>
<path fill-rule="evenodd" clip-rule="evenodd" d="M23.8033 7.45678C23.7205 7.61324 23.5291 7.67972 23.3758 7.60605C23.2225 7.53194 23.158 7.34203 23.2314 7.18175C23.3057 7.02148 23.4967 6.955 23.6585 7.03334C23.8213 7.11146 23.8857 7.30117 23.8033 7.45678Z" fill="#FFFFF1"/>
<path fill-rule="evenodd" clip-rule="evenodd" d="M25.3229 8.38506C25.2198 8.53051 25.0303 8.55782 24.8878 8.46487C24.7428 8.37659 24.7008 8.18392 24.7948 8.03487C24.8886 7.8856 25.0893 7.84029 25.2435 7.93388C25.3936 8.03233 25.4237 8.24278 25.3229 8.38506Z" fill="#FFFFF1"/>
<path fill-rule="evenodd" clip-rule="evenodd" d="M26.7062 9.50765C26.5859 9.6368 26.3869 9.64907 26.2613 9.53453C26.1354 9.41999 26.1248 9.21674 26.237 9.08081C26.3496 8.94531 26.5489 8.93324 26.6818 9.05393C26.8152 9.17545 26.826 9.37807 26.7062 9.50765Z" fill="#FFFFF1"/>
<path fill-rule="evenodd" clip-rule="evenodd" d="M27.9435 10.7866C27.8078 10.899 27.6047 10.8891 27.4902 10.7627C27.3757 10.6371 27.3873 10.4379 27.5173 10.3176C27.6462 10.1976 27.8491 10.2086 27.9704 10.3414C28.0909 10.4745 28.0794 10.6744 27.9435 10.7866Z" fill="#FFFFF1"/>
<path fill-rule="evenodd" clip-rule="evenodd" d="M28.9886 12.229C28.8393 12.3233 28.6467 12.2809 28.5588 12.1363C28.4652 11.9936 28.4932 11.8048 28.6386 11.7016C28.7807 11.6007 28.9911 11.6299 29.0896 11.7808C29.1827 11.9345 29.1377 12.1355 28.9886 12.229Z" fill="#FFFFF1"/>
<path fill-rule="evenodd" clip-rule="evenodd" d="M29.8426 13.7943C29.6821 13.8671 29.4922 13.803 29.4183 13.6495C29.3449 13.4964 29.4111 13.3052 29.5674 13.2235C29.7228 13.1405 29.9129 13.2044 29.9904 13.3666C30.0694 13.5286 30.0027 13.7202 29.8426 13.7943Z" fill="#FFFFF1"/>
<path fill-rule="evenodd" clip-rule="evenodd" d="M30.4982 15.4479C30.3295 15.5002 30.1455 15.4123 30.0866 15.2527C30.0278 15.093 30.1146 14.9139 30.2801 14.8529C30.4455 14.7913 30.6297 14.8786 30.6919 15.0479C30.7533 15.2173 30.6665 15.3964 30.4982 15.4479Z" fill="#FFFFF1"/>
<path fill-rule="evenodd" clip-rule="evenodd" d="M30.9047 17.1816C30.7311 17.2108 30.5694 17.0986 30.544 16.9301C30.5188 16.7617 30.6109 16.5994 30.7868 16.5593C30.9549 16.5212 31.1429 16.6284 31.1704 16.8062C31.1973 16.9838 31.0783 17.152 30.9047 17.1816Z" fill="#FFFFF1"/>
<path fill-rule="evenodd" clip-rule="evenodd" d="M31.0919 18.9526C30.916 18.96 30.7656 18.8271 30.7572 18.6569C30.7481 18.4868 30.8842 18.3363 31.0597 18.3196C31.2355 18.3039 31.3856 18.4358 31.3945 18.6154C31.4034 18.7953 31.2681 18.9463 31.0919 18.9526Z" fill="#FFFFF1"/>
<path d="M3.8761 19.5257C3.87631 12.0021 9.97496 5.90349 17.4985 5.90328" stroke="#FFFFF1" stroke-miterlimit="10"/>
<path d="M6.75146 16.65L3.87585 19.5256L1.00025 16.65" stroke="#FFFFF1" stroke-miterlimit="10"/>
</svg>
