<svg width="15" height="19" viewBox="0 0 15 19" fill="none" xmlns="http://www.w3.org/2000/svg">
<path d="M14.6493 0.159832C14.4278 -0.00223565 14.15 -0.0446436 13.8956 0.0491125L4.64788 3.43075C4.31589 3.55408 4.09302 3.8789 4.09302 4.24751V13.2914C3.72085 13.1108 3.31113 12.9982 2.87441 12.9982C1.28932 12.9982 0 14.3457 0 15.9996C0 17.6544 1.28932 19 2.87441 19C4.45949 19 5.74881 17.6544 5.74881 15.9996C5.74881 15.9865 5.74574 15.9757 5.74574 15.965C5.74574 15.9542 5.75166 15.9446 5.75166 15.9338V4.86093L13.3394 2.08814V9.84468C12.9685 9.66336 12.5608 9.55447 12.1252 9.55447C10.5403 9.55447 9.25119 10.9001 9.25119 12.5551C9.25119 14.2081 10.5403 15.556 12.1252 15.556C13.7107 15.556 15 14.2081 15 12.5551V0.867243C14.9998 0.5846 14.8685 0.323733 14.6493 0.159832ZM2.87419 17.2681C2.20405 17.2681 1.65996 16.699 1.65996 15.9996C1.65996 15.2984 2.20427 14.7301 2.87419 14.7301C3.5441 14.7301 4.08995 15.2984 4.08995 15.9996C4.08995 16.6987 3.5441 17.2681 2.87419 17.2681ZM12.1249 13.8226C11.4548 13.8226 10.9076 13.2531 10.9076 12.5551C10.9076 11.8571 11.4548 11.2872 12.1249 11.2872C12.7951 11.2872 13.3392 11.8571 13.3392 12.5551C13.3392 13.2531 12.7951 13.8226 12.1249 13.8226Z" fill="#F4501B"/>
</svg>
