<svg width="20" height="17" viewBox="0 0 20 17" fill="none" xmlns="http://www.w3.org/2000/svg">
<path d="M19.53 2.55473C19.378 2.46696 19.2055 2.42076 19.03 2.42076C18.8545 2.42076 18.682 2.46696 18.53 2.55473L14 4.78473V2.40473C13.9994 2.22006 13.9478 2.03916 13.8507 1.88207C13.7536 1.72497 13.6149 1.59783 13.45 1.51473C11.4458 0.518462 9.23813 0 7 0C4.76187 0 2.55416 0.518462 0.55 1.51473C0.385085 1.59783 0.246403 1.72497 0.149323 1.88207C0.0522438 2.03916 0.000559705 2.22006 0 2.40473V14.4047C0.000559705 14.5894 0.0522438 14.7703 0.149323 14.9274C0.246403 15.0845 0.385085 15.2116 0.55 15.2947C2.55327 16.294 4.76133 16.8141 7 16.8141C9.23867 16.8141 11.4467 16.294 13.45 15.2947C13.6149 15.2116 13.7536 15.0845 13.8507 14.9274C13.9478 14.7703 13.9994 14.5894 14 14.4047V12.0247L18.55 14.2947C18.6893 14.3661 18.8435 14.4038 19 14.4047C19.1872 14.4053 19.3709 14.3534 19.53 14.2547C19.6741 14.1647 19.7929 14.0393 19.8751 13.8906C19.9574 13.7419 20.0003 13.5747 20 13.4047V3.40473C20.0003 3.23479 19.9574 3.06756 19.8751 2.91884C19.7929 2.77011 19.6741 2.6448 19.53 2.55473ZM12 13.7747C10.4228 14.4624 8.72064 14.8174 7 14.8174C5.27937 14.8174 3.57723 14.4624 2 13.7747V3.04473C3.57598 2.3523 5.27861 1.99475 7 1.99475C8.72139 1.99475 10.424 2.3523 12 3.04473V13.7747ZM18 11.7747L14 9.77473V7.02473L18 5.02473V11.7747Z" fill="#F4501B"/>
</svg>
