<svg width="18" height="18" viewBox="0 0 18 18" fill="none" xmlns="http://www.w3.org/2000/svg">
<path d="M17.1 0H0.9C0.661305 0 0.432387 0.0948211 0.263604 0.263604C0.0948211 0.432387 0 0.661305 0 0.9V17.1C0 17.3387 0.0948211 17.5676 0.263604 17.7364C0.432387 17.9052 0.661305 18 0.9 18H17.1C17.3387 18 17.5676 17.9052 17.7364 17.7364C17.9052 17.5676 18 17.3387 18 17.1V0.9C18 0.661305 17.9052 0.432387 17.7364 0.263604C17.5676 0.0948211 17.3387 0 17.1 0ZM16.2 1.8V9.531L15.039 8.361C14.9553 8.27664 14.8558 8.20969 14.7461 8.164C14.6364 8.11831 14.5188 8.09478 14.4 8.09478C14.2812 8.09478 14.1636 8.11831 14.0539 8.164C13.9442 8.20969 13.8447 8.27664 13.761 8.361L10.917 11.214L7.029 5.814C6.95734 5.70032 6.86114 5.60413 6.74745 5.53249C6.63376 5.46085 6.50547 5.41558 6.372 5.4C6.2419 5.39212 6.11157 5.41124 5.98921 5.45615C5.86685 5.50107 5.7551 5.57081 5.661 5.661L1.8 9.531V1.8H16.2ZM1.8 16.2V12.069L6.183 7.686L10.071 13.086C10.1464 13.193 10.2443 13.2823 10.3578 13.3475C10.4712 13.4128 10.5976 13.4526 10.728 13.464H10.8C10.9184 13.4647 11.0359 13.442 11.1455 13.3972C11.2552 13.3524 11.3549 13.2864 11.439 13.203L14.4 10.269L16.2 12.069V16.2H1.8Z" fill="#F4501B"/>
</svg>
