<svg width="20" height="21" viewBox="0 0 20 21" fill="none" xmlns="http://www.w3.org/2000/svg">
<path d="M20 4.81026C19.9995 4.73369 19.99 4.65744 19.9715 4.58304C19.9715 4.55857 19.9715 4.53759 19.9715 4.51662C19.9544 4.46257 19.933 4.40997 19.9073 4.35931C19.8968 4.33647 19.8849 4.31429 19.8716 4.29289C19.8413 4.23932 19.8055 4.18895 19.7647 4.14258L19.7326 4.10413C19.6776 4.04442 19.6153 3.99159 19.5472 3.94682L19.5044 3.92934C19.4648 3.90269 19.4231 3.8793 19.3796 3.85943L10.4083 0.0875517C10.2733 0.0298061 10.1276 0 9.98039 0C9.83313 0 9.68747 0.0298061 9.5525 0.0875517L0.638262 3.84894C0.591908 3.86991 0.552685 3.89438 0.509896 3.91885L0.470674 3.93633C0.403233 3.98202 0.341062 4.03477 0.285258 4.09364C0.27487 4.10581 0.265339 4.11865 0.256732 4.13209C0.214778 4.17839 0.177742 4.22875 0.146196 4.28241C0.132927 4.30381 0.121018 4.32599 0.110538 4.34883C0.0860704 4.39959 0.0657996 4.45219 0.0499216 4.50613L0.0285276 4.57255C0.01005 4.64695 0.000476314 4.7232 1.39209e-06 4.79977V16.0839C-0.000333738 16.2876 0.0598469 16.487 0.173192 16.6577C0.286536 16.8284 0.448139 16.9631 0.638262 17.0453L9.5525 20.8031H9.57747C9.6268 20.8236 9.67819 20.8388 9.73079 20.8486C9.74726 20.8519 9.76424 20.8519 9.78071 20.8486C9.84389 20.8626 9.90847 20.8697 9.97326 20.8696C10.0318 20.8674 10.0902 20.8615 10.148 20.8521H10.205C10.2563 20.8418 10.3065 20.8265 10.3548 20.8066H10.3833L19.351 17.0453C19.5432 16.9647 19.707 16.8307 19.8223 16.6599C19.9377 16.489 19.9994 16.2888 20 16.0839V4.81026ZM9.98752 2.19197L16.2132 4.81026L9.98752 7.42505L3.75825 4.81026L9.98752 2.19197ZM2.11446 6.38683L8.91781 9.24282V18.2478L2.11446 15.3848V6.38683ZM17.8606 15.3848L11.0572 18.2478V9.25681L17.8606 6.40081V15.3848Z" fill="#F4501B"/>
</svg>
