<svg width="16" height="17" viewBox="0 0 16 17" fill="none" xmlns="http://www.w3.org/2000/svg">
<path d="M9.5124 10.704H9.4244L7.1124 10.448C6.93277 10.4275 6.76539 10.3467 6.63754 10.2189C6.5097 10.091 6.42893 9.92366 6.4084 9.74403L6.1444 7.43203C6.1342 7.3104 6.15197 7.18806 6.19634 7.07435C6.24071 6.96065 6.31051 6.8586 6.4004 6.77603L12.0004 1.21603C12.1503 1.06703 12.3531 0.983398 12.5644 0.983398C12.7757 0.983398 12.9785 1.06703 13.1284 1.21603L15.6964 3.78403C15.8454 3.93392 15.929 4.13668 15.929 4.34803C15.929 4.55938 15.8454 4.76214 15.6964 4.91203L10.1364 10.512C10.0517 10.5861 9.9524 10.6415 9.84488 10.6746C9.73735 10.7077 9.62406 10.7177 9.5124 10.704ZM7.9124 8.92003L9.2004 9.06403L13.9204 4.34403L12.5044 2.91203L7.7844 7.63203L7.9124 8.92003Z" fill="#F4501B"/>
<path d="M13.6 16.8481H8C7.78783 16.8481 7.58434 16.7639 7.43431 16.6138C7.28429 16.4638 7.2 16.2603 7.2 16.0481C7.2 15.836 7.28429 15.6325 7.43431 15.4825C7.58434 15.3324 7.78783 15.2481 8 15.2481H13.6C13.8122 15.2481 14.0157 15.1639 14.1657 15.0138C14.3157 14.8638 14.4 14.6603 14.4 14.4481C14.4 14.236 14.3157 14.0325 14.1657 13.8825C14.0157 13.7324 13.8122 13.6481 13.6 13.6481H2.4C1.76348 13.6481 1.15303 13.3953 0.702944 12.9452C0.252856 12.4951 0 11.8847 0 11.2481C0 10.6116 0.252856 10.0012 0.702944 9.55109C1.15303 9.101 1.76348 8.84814 2.4 8.84814H4C4.21217 8.84814 4.41566 8.93243 4.56569 9.08246C4.71571 9.23249 4.8 9.43597 4.8 9.64814C4.8 9.86032 4.71571 10.0638 4.56569 10.2138C4.41566 10.3639 4.21217 10.4481 4 10.4481H2.4C2.18783 10.4481 1.98434 10.5324 1.83431 10.6825C1.68429 10.8325 1.6 11.036 1.6 11.2481C1.6 11.4603 1.68429 11.6638 1.83431 11.8138C1.98434 11.9639 2.18783 12.0481 2.4 12.0481H13.6C14.2365 12.0481 14.847 12.301 15.2971 12.7511C15.7471 13.2012 16 13.8116 16 14.4481C16 15.0847 15.7471 15.6951 15.2971 16.1452C14.847 16.5953 14.2365 16.8481 13.6 16.8481Z" fill="#F4501B"/>
</svg>
