<svg width="20" height="18" viewBox="0 0 20 18" fill="none" xmlns="http://www.w3.org/2000/svg">
<path d="M0 16.0714C0 15.69 0.113109 15.3171 0.325023 15C0.536937 14.6828 0.838139 14.4356 1.19054 14.2897C1.54294 14.1437 1.93071 14.1055 2.30482 14.1799C2.67892 14.2543 3.02256 14.438 3.29228 14.7077C3.56199 14.9774 3.74567 15.3211 3.82009 15.6952C3.8945 16.0693 3.85631 16.4571 3.71034 16.8095C3.56437 17.1619 3.31718 17.4631 3.00003 17.675C2.68288 17.8869 2.31001 18 1.92857 18C1.41708 18 0.926543 17.7968 0.564866 17.4351C0.203188 17.0735 0 16.5829 0 16.0714ZM1.92857 3.85715C2.31001 3.85715 2.68288 3.74404 3.00003 3.53212C3.31718 3.32021 3.56437 3.01901 3.71034 2.66661C3.85631 2.31421 3.8945 1.92643 3.82009 1.55233C3.74567 1.17822 3.56199 0.834582 3.29228 0.564866C3.02256 0.295151 2.67892 0.111472 2.30482 0.0370578C1.93071 -0.0373565 1.54294 0.000835611 1.19054 0.146805C0.838139 0.292774 0.536937 0.539964 0.325023 0.857116C0.113109 1.17427 0 1.54714 0 1.92857C0 2.44006 0.203188 2.9306 0.564866 3.29228C0.926543 3.65396 1.41708 3.85715 1.92857 3.85715ZM1.92857 10.9286C2.31001 10.9286 2.68288 10.8155 3.00003 10.6036C3.31718 10.3916 3.56437 10.0904 3.71034 9.73804C3.85631 9.38564 3.8945 8.99786 3.82009 8.62376C3.74567 8.24965 3.56199 7.90601 3.29228 7.6363C3.02256 7.36658 2.67892 7.1829 2.30482 7.10849C1.93071 7.03407 1.54294 7.07227 1.19054 7.21824C0.838139 7.3642 0.536937 7.61139 0.325023 7.92855C0.113109 8.2457 0 8.61857 0 9C0 9.51149 0.203188 10.002 0.564866 10.3637C0.926543 10.7254 1.41708 10.9286 1.92857 10.9286ZM8.35715 3.21429H18C18.341 3.21429 18.668 3.07883 18.9091 2.83771C19.1503 2.59659 19.2857 2.26957 19.2857 1.92857C19.2857 1.58758 19.1503 1.26055 18.9091 1.01944C18.668 0.778317 18.341 0.642858 18 0.642858H8.35715C8.01615 0.642858 7.68913 0.778317 7.44801 1.01944C7.20689 1.26055 7.07143 1.58758 7.07143 1.92857C7.07143 2.26957 7.20689 2.59659 7.44801 2.83771C7.68913 3.07883 8.01615 3.21429 8.35715 3.21429ZM8.35715 10.2857H18C18.341 10.2857 18.668 10.1503 18.9091 9.90914C19.1503 9.66802 19.2857 9.341 19.2857 9C19.2857 8.65901 19.1503 8.33198 18.9091 8.09087C18.668 7.84975 18.341 7.71429 18 7.71429H8.35715C8.01615 7.71429 7.68913 7.84975 7.44801 8.09087C7.20689 8.33198 7.07143 8.65901 7.07143 9C7.07143 9.341 7.20689 9.66802 7.44801 9.90914C7.68913 10.1503 8.01615 10.2857 8.35715 10.2857ZM8.35715 17.3572H18C18.341 17.3572 18.668 17.2217 18.9091 16.9806C19.1503 16.7395 19.2857 16.4124 19.2857 16.0714C19.2857 15.7304 19.1503 15.4034 18.9091 15.1623C18.668 14.9212 18.341 14.7857 18 14.7857H8.35715C8.01615 14.7857 7.68913 14.9212 7.44801 15.1623C7.20689 15.4034 7.07143 15.7304 7.07143 16.0714C7.07143 16.4124 7.20689 16.7395 7.44801 16.9806C7.68913 17.2217 8.01615 17.3572 8.35715 17.3572Z" fill="#F4501B"/>
</svg>
