<svg width="26" height="19" viewBox="0 0 26 19" fill="none" xmlns="http://www.w3.org/2000/svg">
<path d="M21.7568 0H3.42357C2.51558 0 1.64478 0.370445 1.00274 1.02984C0.360697 1.68924 0 2.58357 0 3.5161V14.7852C0 15.7177 0.360697 16.6121 1.00274 17.2715C1.64478 17.9309 2.51558 18.3013 3.42357 18.3013H21.7568C22.6648 18.3013 23.5356 17.9309 24.1776 17.2715C24.8197 16.6121 25.1804 15.7177 25.1804 14.7852V3.5161C25.1804 2.58357 24.8197 1.68924 24.1776 1.02984C23.5356 0.370445 22.6648 0 21.7568 0ZM24.3245 3.5161V14.7852C24.3236 14.9326 24.3107 15.0796 24.286 15.2247L17.2976 8.84299L24.3159 3.38864C24.3202 3.43699 24.3245 3.47215 24.3245 3.5161ZM3.42357 0.879025H21.7568C22.2548 0.879052 22.742 1.02781 23.1592 1.30718C23.5763 1.58655 23.9054 1.98447 24.1062 2.45248L14.1393 10.1923C13.6934 10.5388 13.1494 10.7263 12.5902 10.7263C12.0309 10.7263 11.487 10.5388 11.041 10.1923L1.07415 2.45248C1.275 1.98447 1.60404 1.58655 2.02119 1.30718C2.43833 1.02781 2.92557 0.879052 3.42357 0.879025ZM0.855893 14.7852V3.5161C0.855893 3.47215 0.855893 3.43259 0.855893 3.38864L7.88277 8.84299L0.894408 15.2423C0.868664 15.0914 0.855777 14.9384 0.855893 14.7852ZM21.7568 17.4223H3.42357C2.97548 17.4195 2.53589 17.2963 2.1485 17.065C1.76111 16.8337 1.43941 16.5023 1.21537 16.1037L8.57605 9.36162L10.5275 10.9087C11.1216 11.3693 11.8458 11.6185 12.5902 11.6185C13.3346 11.6185 14.0587 11.3693 14.6529 10.9087L16.6043 9.39678L23.965 16.1389C23.7367 16.5309 23.4131 16.8553 23.026 17.0803C22.6389 17.3053 22.2016 17.4231 21.7568 17.4223Z" fill="#A9D8B4"/>
</svg>
