<svg width="28" height="19" viewBox="0 0 28 19" fill="none" xmlns="http://www.w3.org/2000/svg">
<path d="M27.2849 0.339227C27.2819 0.331939 27.2772 0.326076 27.2739 0.318957C27.2491 0.265769 27.2171 0.218696 27.1782 0.177068C27.1677 0.16576 27.1568 0.156086 27.1454 0.1457C27.1073 0.111233 27.0655 0.0832571 27.0194 0.0607257C27.005 0.0536481 26.9922 0.0456071 26.9772 0.0397858C26.9158 0.0161656 26.8514 0 26.7829 0H0.549212C0.548709 0 0.548207 0.000251279 0.547704 0.000251279C0.547285 0.000251279 0.54695 0 0.546532 0C0.543307 0 0.540668 0.00180086 0.537444 0.00184271C0.47475 0.00322477 0.415238 0.0166681 0.358617 0.0379431C0.334955 0.046696 0.314517 0.0589667 0.292531 0.0707769C0.259152 0.0888271 0.228287 0.109097 0.199348 0.133639C0.177612 0.15194 0.157636 0.169948 0.138999 0.191349C0.116384 0.21744 0.0986689 0.246756 0.0811631 0.277119C0.0661701 0.302917 0.0494182 0.326369 0.0387388 0.354638C0.0378594 0.356984 0.0360585 0.358701 0.0352209 0.361088C0.015328 0.416244 0.00519311 0.472991 0.00343414 0.529487C0.00322473 0.535475 0 0.540501 0 0.546532V18.0357C0 18.0708 0.0136947 18.1016 0.0200604 18.1349C0.0248766 18.1609 0.026845 18.1861 0.0354722 18.2114C0.0516797 18.2585 0.0764306 18.2989 0.104155 18.3392C0.114039 18.3537 0.11718 18.3709 0.128655 18.3847C0.132298 18.3891 0.137868 18.3904 0.141596 18.3947C0.186449 18.4453 0.239888 18.4856 0.300613 18.5168C0.309324 18.5213 0.315983 18.5293 0.324904 18.5332C0.392916 18.5636 0.467211 18.5822 0.546532 18.5822H26.7803C26.7806 18.5822 26.781 18.582 26.7813 18.582C26.7818 18.582 26.7822 18.5822 26.7826 18.5822C26.7929 18.5822 26.8024 18.5763 26.8126 18.5757C26.8783 18.5716 26.942 18.5602 26.9994 18.535C27.0253 18.5238 27.0455 18.5028 27.0696 18.4876C27.1091 18.4622 27.1478 18.4375 27.1795 18.4032C27.1866 18.3955 27.1968 18.3929 27.2035 18.3847C27.2248 18.359 27.2331 18.3282 27.249 18.3001C27.2628 18.2758 27.2781 18.2538 27.2881 18.2274C27.3061 18.1799 27.3131 18.1321 27.3173 18.0825C27.3188 18.0663 27.3268 18.0523 27.3268 18.0357V17.9875C27.3267 17.9864 27.3269 17.9853 27.3268 17.9842V0.546532C27.3268 0.546448 27.3267 0.546364 27.3267 0.54628C27.3267 0.484214 27.3188 0.421814 27.2969 0.361088C27.294 0.353089 27.2881 0.347058 27.2849 0.339227ZM11.0865 10.0012L13.317 11.8522C13.4182 11.9363 13.5423 11.9782 13.6661 11.9782C13.7899 11.9782 13.914 11.9363 14.0151 11.8522L16.2456 10.0012L25.2685 17.4891H2.06367L11.0865 10.0012ZM1.09311 16.874V1.70815L10.2306 9.29095L1.09311 16.874ZM17.1015 9.29095L26.2337 1.71255V16.8697L17.1015 9.29095ZM25.2685 1.09306L13.6661 10.7215L2.06367 1.09306H25.2685Z" fill="#A9D8B4"/>
</svg>
