<svg width="207" height="63" viewBox="0 0 207 63" fill="none" xmlns="http://www.w3.org/2000/svg">
<path d="M91.216 25H93.584V20.648H97.184V25H99.536V14.568H97.184V18.584H93.584V14.568H91.216V25ZM101.326 21.032C101.326 23.672 103.182 25.192 105.198 25.192C107.198 25.192 109.054 23.672 109.054 21.032C109.054 18.392 107.198 16.872 105.198 16.872C103.182 16.872 101.326 18.392 101.326 21.032ZM103.742 21.032C103.742 19.656 104.222 18.776 105.198 18.776C106.158 18.776 106.654 19.656 106.654 21.032C106.654 22.408 106.158 23.288 105.198 23.288C104.222 23.288 103.742 22.408 103.742 21.032ZM109.883 24.088C110.683 24.744 111.883 25.192 112.923 25.192C115.051 25.192 116.187 24.072 116.187 22.632C116.187 21.176 115.051 20.616 114.043 20.248C113.227 19.944 112.491 19.752 112.491 19.24C112.491 18.84 112.779 18.616 113.387 18.616C113.947 18.616 114.491 18.872 115.067 19.288L116.123 17.88C115.435 17.368 114.539 16.872 113.323 16.872C111.483 16.872 110.283 17.88 110.283 19.352C110.283 20.664 111.419 21.32 112.379 21.688C113.195 22.008 113.995 22.248 113.995 22.776C113.995 23.192 113.691 23.448 112.987 23.448C112.315 23.448 111.659 23.16 110.939 22.616L109.883 24.088ZM118.001 22.12C118.001 23.96 118.769 25.192 120.737 25.192C121.505 25.192 122.081 25.032 122.497 24.904L122.129 23.192C121.921 23.272 121.633 23.352 121.377 23.352C120.753 23.352 120.353 22.984 120.353 22.088V18.904H122.257V17.064H120.353V14.952H118.401L118.129 17.064L116.913 17.16V18.904H118.001V22.12ZM123.185 21.032C123.185 23.656 124.929 25.192 127.201 25.192C128.145 25.192 129.201 24.856 130.017 24.296L129.233 22.872C128.657 23.224 128.113 23.4 127.521 23.4C126.465 23.4 125.665 22.872 125.457 21.672H130.209C130.257 21.48 130.305 21.096 130.305 20.68C130.305 18.52 129.185 16.872 126.929 16.872C125.025 16.872 123.185 18.456 123.185 21.032ZM125.441 20.216C125.601 19.16 126.241 18.664 126.977 18.664C127.921 18.664 128.305 19.304 128.305 20.216H125.441ZM131.515 21.032C131.515 23.624 132.795 25.192 134.763 25.192C135.531 25.192 136.315 24.776 136.875 24.216H136.939L137.099 25H139.019V13.784H136.667V16.488L136.763 17.704C136.219 17.192 135.691 16.872 134.811 16.872C133.131 16.872 131.515 18.44 131.515 21.032ZM133.931 21C133.931 19.496 134.603 18.792 135.355 18.792C135.787 18.792 136.251 18.92 136.667 19.304V22.552C136.283 23.08 135.883 23.272 135.371 23.272C134.459 23.272 133.931 22.568 133.931 21ZM144.431 25H146.271L146.463 24.168H146.527C147.151 24.84 147.887 25.192 148.591 25.192C150.303 25.192 151.935 23.624 151.935 20.888C151.935 18.456 150.735 16.872 148.815 16.872C148.079 16.872 147.327 17.208 146.719 17.752L146.783 16.536V13.784H144.431V25ZM146.783 22.76V19.512C147.231 19.016 147.663 18.792 148.143 18.792C149.087 18.792 149.519 19.512 149.519 20.936C149.519 22.568 148.863 23.272 148.047 23.272C147.647 23.272 147.199 23.144 146.783 22.76ZM153.654 26.152L153.238 27.944C153.558 28.04 153.878 28.104 154.358 28.104C156.23 28.104 157.078 27.08 157.83 25.08L160.582 17.064H158.326L157.366 20.472C157.174 21.224 156.998 21.976 156.822 22.728H156.758C156.549 21.944 156.358 21.192 156.134 20.472L154.998 17.064H152.63L155.686 24.792L155.574 25.208C155.366 25.832 154.966 26.248 154.182 26.248C154.006 26.248 153.798 26.184 153.654 26.152ZM90.416 49.752C91.104 50.504 92.144 51.192 93.776 51.192C95.648 51.192 97.136 50.088 97.136 48.28C97.136 46.872 96.16 45.976 94.928 45.688V45.624C96.032 45.208 96.784 44.424 96.784 43.192C96.784 41.544 95.504 40.6 93.728 40.6C92.528 40.6 91.584 41.144 90.8 41.88L91.504 42.712C92.112 42.104 92.832 41.672 93.68 41.672C94.768 41.672 95.44 42.296 95.44 43.288C95.44 44.36 94.72 45.192 92.544 45.192V46.2C94.976 46.2 95.808 47.016 95.808 48.232C95.808 49.368 94.928 50.104 93.696 50.104C92.496 50.104 91.696 49.528 91.088 48.888L90.416 49.752ZM99.3451 51H102.033C105.201 51 106.929 49.048 106.929 45.704C106.929 42.376 105.201 40.504 101.969 40.504H99.3451V51ZM100.689 49.912V41.592H101.873C104.337 41.592 105.553 43.064 105.553 45.704C105.553 48.36 104.337 49.912 101.873 49.912H100.689ZM114.296 51H115.848L119.176 40.504H117.816L116.136 46.168C115.784 47.416 115.512 48.408 115.128 49.64H115.064C114.68 48.408 114.424 47.416 114.056 46.168L112.36 40.504H110.952L114.296 51ZM121.125 41.624C121.637 41.624 122.037 41.272 122.037 40.776C122.037 40.264 121.637 39.928 121.125 39.928C120.613 39.928 120.213 40.264 120.213 40.776C120.213 41.272 120.613 41.624 121.125 41.624ZM120.453 51H121.765V43.224H120.453V51ZM123.83 47.128C123.83 49.72 125.094 51.192 127.046 51.192C127.958 51.192 128.79 50.68 129.398 50.088H129.446L129.558 51H130.646V39.608H129.318V42.6L129.382 43.928C128.694 43.368 128.102 43.032 127.206 43.032C125.43 43.032 123.83 44.6 123.83 47.128ZM125.19 47.112C125.19 45.336 126.182 44.136 127.43 44.136C128.07 44.136 128.662 44.36 129.318 44.952V49.016C128.678 49.736 128.054 50.088 127.334 50.088C125.974 50.088 125.19 48.968 125.19 47.112ZM132.689 47.128C132.689 49.672 134.337 51.192 136.417 51.192C137.473 51.192 138.305 50.824 138.977 50.392L138.513 49.528C137.937 49.896 137.313 50.136 136.577 50.136C135.089 50.136 134.081 49.08 133.985 47.4H139.233C139.265 47.208 139.281 46.952 139.281 46.68C139.281 44.456 138.161 43.032 136.177 43.032C134.401 43.032 132.689 44.584 132.689 47.128ZM133.969 46.536C134.129 44.968 135.121 44.072 136.209 44.072C137.425 44.072 138.129 44.952 138.129 46.536H133.969ZM140.627 47.128C140.627 49.704 142.323 51.192 144.227 51.192C146.131 51.192 147.827 49.704 147.827 47.128C147.827 44.52 146.131 43.032 144.227 43.032C142.323 43.032 140.627 44.52 140.627 47.128ZM141.987 47.128C141.987 45.336 142.899 44.12 144.227 44.12C145.571 44.12 146.467 45.336 146.467 47.128C146.467 48.904 145.571 50.104 144.227 50.104C142.899 50.104 141.987 48.904 141.987 47.128ZM152.581 45.752C152.581 49.176 154.549 51.192 157.189 51.192C158.517 51.192 159.557 50.632 160.373 49.672L159.621 48.856C158.949 49.608 158.213 50.024 157.221 50.024C155.221 50.024 153.957 48.36 153.957 45.72C153.957 43.112 155.285 41.48 157.285 41.48C158.149 41.48 158.821 41.864 159.381 42.456L160.133 41.608C159.509 40.92 158.517 40.312 157.269 40.312C154.581 40.312 152.581 42.376 152.581 45.752ZM162.171 51H163.483V45.368C164.267 44.584 164.811 44.168 165.611 44.168C166.635 44.168 167.083 44.792 167.083 46.248V51H168.395V46.072C168.395 44.088 167.659 43.032 166.027 43.032C164.955 43.032 164.171 43.608 163.435 44.312L163.483 42.712V39.608H162.171V51ZM170.491 48.984C170.491 50.376 171.467 51.192 172.779 51.192C173.739 51.192 174.603 50.68 175.355 50.072H175.387L175.499 51H176.587V46.232C176.587 44.296 175.787 43.032 173.883 43.032C172.635 43.032 171.547 43.576 170.827 44.04L171.355 44.952C171.963 44.536 172.763 44.12 173.674 44.12C174.939 44.12 175.275 45.08 175.275 46.072C171.963 46.44 170.491 47.288 170.491 48.984ZM171.787 48.888C171.787 47.896 172.667 47.256 175.275 46.936V49.096C174.523 49.768 173.899 50.136 173.147 50.136C172.379 50.136 171.787 49.768 171.787 48.888ZM179.286 48.6C179.286 50.136 179.846 51.192 181.51 51.192C181.99 51.192 182.518 51.048 182.95 50.904L182.694 49.912C182.438 50.008 182.086 50.12 181.814 50.12C180.918 50.12 180.614 49.576 180.614 48.616V44.296H182.71V43.224H180.614V41.048H179.51L179.35 43.224L178.134 43.304V44.296H179.286V48.6Z" fill="#FFFFF1"/>
<path d="M167.517 20.68L167.773 19.72C168.061 18.68 168.349 17.464 168.589 16.36H168.653C168.941 17.448 169.213 18.68 169.501 19.72L169.757 20.68H167.517ZM170.877 25H173.373L170.093 14.568H167.277L163.997 25H166.397L167.037 22.52H170.237L170.877 25ZM174.29 25H176.642V20.392C177.058 19.32 177.794 18.936 178.386 18.936C178.722 18.936 178.962 18.984 179.25 19.064L179.634 17.032C179.41 16.936 179.138 16.872 178.69 16.872C177.874 16.872 177.01 17.384 176.434 18.456H176.37L176.21 17.064H174.29V25ZM181.833 15.896C182.633 15.896 183.193 15.384 183.193 14.664C183.193 13.944 182.633 13.448 181.833 13.448C181.049 13.448 180.473 13.944 180.473 14.664C180.473 15.384 181.049 15.896 181.833 15.896ZM180.665 25H183.017V17.064H180.665V25ZM185.007 21.992C185.007 23.976 185.743 25.192 187.471 25.192C188.559 25.192 189.295 24.696 189.967 23.896H190.015L190.191 25H192.111V17.064H189.759V22.312C189.295 22.936 188.943 23.192 188.351 23.192C187.663 23.192 187.359 22.824 187.359 21.688V17.064H185.007V21.992ZM194.181 25H196.533V19.64C197.029 19.128 197.493 18.872 197.877 18.872C198.549 18.872 198.853 19.224 198.853 20.376V25H201.205V19.64C201.717 19.128 202.165 18.872 202.565 18.872C203.237 18.872 203.541 19.224 203.541 20.376V25H205.893V20.072C205.893 18.088 205.125 16.872 203.413 16.872C202.357 16.872 201.621 17.48 200.917 18.2C200.517 17.352 199.845 16.872 198.725 16.872C197.685 16.872 196.981 17.432 196.325 18.088H196.261L196.101 17.064H194.181V25Z" fill="#A9D8B4"/>
<path d="M23.3907 38.9644L31.8934 53.5453L28.4418 56.7898L19.9391 42.2089L23.3907 38.9644Z" stroke="#FFFFF1" stroke-miterlimit="10" stroke-linecap="round" stroke-linejoin="round"/>
<path d="M19.9386 42.2092L28.4413 56.7901L15.8902 56.8793L7.38752 42.2984L19.9386 42.2092Z" stroke="#FFFFF1" stroke-miterlimit="10" stroke-linecap="round" stroke-linejoin="round"/>
<path d="M39.47 38.8492L23.3904 38.9645L31.8932 53.5453L45.7437 53.5453" stroke="#FFFFF1" stroke-miterlimit="10" stroke-linecap="round" stroke-linejoin="round"/>
<path d="M53.7674 2.61003L51.827 41.9812L39.2759 42.0704L39.4729 38.8476L23.3906 38.9644L19.9391 42.209L7.38802 42.2982L50.0322 2.6373L53.7674 2.61003ZM32.1106 30.816L39.9114 30.7604L41.1232 21.79L32.1106 30.816Z" stroke="#FFFFF1" stroke-miterlimit="10" stroke-linecap="round" stroke-linejoin="round"/>
<path d="M53.7673 2.61028L62.27 17.1911L60.3268 56.5639L51.8268 41.9814L53.7673 2.61028Z" stroke="#FFFFF1" stroke-miterlimit="10" stroke-linecap="round" stroke-linejoin="round"/>
<path d="M51.827 41.9816L60.327 56.564L47.776 56.6532L39.276 42.0708L51.827 41.9816Z" stroke="#FFFFF1" stroke-miterlimit="10" stroke-linecap="round" stroke-linejoin="round"/>
</svg>
