<svg width="19" height="29" viewBox="0 0 19 29" fill="none" xmlns="http://www.w3.org/2000/svg">
<path d="M9.36357 18.4504C12.0724 18.4504 14.2696 16.2532 14.2395 13.5443V4.87597C14.2395 2.19719 12.0724 0 9.36357 0C6.65471 0 4.48761 2.19719 4.48761 4.87597V13.5443C4.45751 16.2532 6.65471 18.4504 9.36357 18.4504ZM5.69155 4.90606C5.69155 2.85936 7.31687 1.20394 9.36357 1.20394C11.4103 1.20394 13.0356 2.85936 13.0356 4.87597V13.5443C13.0356 15.591 11.3802 17.2164 9.36357 17.2164C7.34697 17.2164 5.69155 15.591 5.69155 13.5443V4.90606Z" fill="#A9D8B4"/>
<path d="M17.9417 8.6084C17.6107 8.6084 17.3398 8.87928 17.3398 9.21037V14.1465C17.3398 18.5409 13.758 22.1226 9.36365 22.1226C4.96926 22.1226 1.38754 18.5409 1.38754 14.1465V9.21037C1.38754 8.87928 1.11665 8.6084 0.785565 8.6084C0.454481 8.6084 0.183594 8.87928 0.183594 9.21037V14.1465C0.183594 18.9924 3.91581 23.0256 8.76168 23.3567V27.0889H4.45759C4.1265 27.0889 3.85562 27.3598 3.85562 27.6909C3.85562 28.022 4.1265 28.2928 4.45759 28.2928H14.2697C14.6008 28.2928 14.8717 28.022 14.8717 27.6909C14.8717 27.3598 14.6008 27.0889 14.2697 27.0889H9.96562V23.3567C14.8115 23.0256 18.5437 18.9924 18.5437 14.1465V9.21037C18.5437 8.87928 18.2728 8.6084 17.9417 8.6084Z" fill="#A9D8B4"/>
</svg>
