<svg width="26" height="26" viewBox="0 0 26 26" fill="none" xmlns="http://www.w3.org/2000/svg">
<path d="M25.5357 8.82143H18.9227L17.7043 4.51634C17.6476 4.31665 17.4651 4.17857 17.2575 4.17857H14.8571V0.464286C14.8571 0.207907 14.6492 0 14.3929 0H11.6071C11.3508 0 11.1429 0.207907 11.1429 0.464286V4.17857H8.74255C8.53487 4.17857 8.35241 4.31665 8.29572 4.51634L7.07734 8.82143H0.464286C0.207907 8.82143 0 9.02934 0 9.28571V25.5357C0 25.7921 0.207907 26 0.464286 26H25.5357C25.7921 26 26 25.7921 26 25.5357V9.28571C26 9.02934 25.7921 8.82143 25.5357 8.82143ZM11.6071 6.96429H14.3929C14.6492 6.96429 14.8571 6.75638 14.8571 6.5C15.1131 6.5 15.3214 6.70832 15.3214 6.96429C15.3214 7.0883 15.274 7.20256 15.1795 7.29481C15.0954 7.38117 14.9809 7.42857 14.8571 7.42857H11.1429C10.8869 7.42857 10.6786 7.22025 10.6786 6.96429C10.6786 6.84027 10.726 6.72601 10.8207 6.63353C10.9046 6.5474 11.0188 6.5 11.1429 6.5C11.1429 6.75638 11.3508 6.96429 11.6071 6.96429ZM12.0714 0.928571H13.9286V4.64286V6.03571H12.0714V4.64286V0.928571ZM9.09369 5.10714H11.1429V5.57143C10.7663 5.57143 10.4156 5.71856 10.1642 5.97698C9.89713 6.23703 9.75 6.58775 9.75 6.96429C9.75 7.73235 10.3748 8.35714 11.1429 8.35714H14.8571C15.2334 8.35714 15.5839 8.21001 15.8358 7.95159C16.1029 7.69154 16.25 7.34082 16.25 6.96429C16.25 6.19622 15.6252 5.57143 14.8571 5.57143V5.10714H16.9063L17.9576 8.82143H8.0425L9.09369 5.10714ZM25.0714 25.0714H0.928571V9.75H7.42857H18.5714H25.0714V25.0714Z" fill="#A9D8B4"/>
<path d="M7.42843 12.5352C4.61235 12.5352 2.32129 14.8262 2.32129 17.6423C2.32129 19.1217 2.96354 20.5273 4.08186 21.4971C5.00546 22.3047 6.1938 22.7494 7.42843 22.7494C7.58276 22.7494 7.73635 22.7425 7.88882 22.7287C8.95598 22.6326 9.96673 22.2038 10.7737 21.4982C10.7737 21.4981 10.7738 21.4981 10.7739 21.498C10.7743 21.4976 10.7747 21.4974 10.775 21.4971C10.7753 21.4968 10.7755 21.4964 10.7758 21.4961C11.8941 20.5253 12.5356 19.1207 12.5356 17.6423C12.5356 14.8262 10.2445 12.5352 7.42843 12.5352ZM7.0714 21.8049C7.03277 21.8016 6.99465 21.7954 6.95621 21.791C6.87681 21.7821 6.79751 21.7724 6.71905 21.7589C6.67425 21.7512 6.63005 21.7412 6.58561 21.732C6.51411 21.7173 6.44285 21.7018 6.37237 21.6834C6.32664 21.6715 6.28141 21.658 6.23615 21.6445C6.16794 21.6242 6.10025 21.6026 6.0333 21.5788C5.98854 21.563 5.94416 21.5464 5.9 21.5291C5.83338 21.5028 5.76773 21.4746 5.70254 21.4449C5.66034 21.4257 5.61809 21.4066 5.57649 21.3861C5.50991 21.3531 5.44468 21.3172 5.37986 21.2806C5.34207 21.2592 5.30381 21.2388 5.26667 21.2163C5.19633 21.1736 5.12804 21.1273 5.0602 21.0802C5.03077 21.0599 5.00036 21.0411 4.97143 21.0199C4.96586 21.0158 4.9608 21.0111 4.95523 21.007C5.4236 20.0935 6.3798 19.4994 7.42843 19.4994C8.47707 19.4994 9.43322 20.0935 9.90164 21.007C9.8962 21.0111 9.89119 21.0157 9.88576 21.0197C9.85432 21.0427 9.82136 21.0632 9.78932 21.0853C9.72423 21.1302 9.65881 21.1746 9.5914 21.2156C9.55226 21.2394 9.51196 21.2609 9.47208 21.2834C9.40931 21.3187 9.34626 21.3534 9.28177 21.3854C9.23887 21.4067 9.19522 21.4265 9.15158 21.4462C9.08779 21.4752 9.02349 21.5029 8.9583 21.5286C8.91322 21.5463 8.86772 21.5632 8.82199 21.5794C8.75596 21.6028 8.68925 21.6242 8.62202 21.6442C8.5761 21.6579 8.53018 21.6716 8.4838 21.6837C8.41393 21.7019 8.34321 21.7172 8.27232 21.7318C8.22742 21.7411 8.18276 21.7512 8.13749 21.759C8.05926 21.7724 7.98024 21.782 7.90107 21.7909C7.86249 21.7953 7.82424 21.8015 7.78547 21.8048C7.66717 21.8149 7.54812 21.8209 7.42843 21.8209C7.30874 21.8209 7.1897 21.8149 7.0714 21.8049ZM10.5935 20.3587C9.93186 19.2701 8.73684 18.5709 7.42843 18.5709C6.11998 18.5709 4.92486 19.2702 4.2633 20.3589C3.61632 19.6062 3.24986 18.6467 3.24986 17.6423C3.24986 15.3383 5.12446 13.4637 7.42843 13.4637C9.7324 13.4637 11.607 15.3383 11.607 17.6423C11.607 18.6463 11.2408 19.6056 10.5935 20.3587Z" fill="#A9D8B4"/>
<path d="M7.42843 14.3926C6.4044 14.3926 5.57129 15.2257 5.57129 16.2497C5.57129 17.2737 6.4044 18.1069 7.42843 18.1069C8.45246 18.1069 9.28557 17.2737 9.28557 16.2497C9.28557 15.2257 8.45246 14.3926 7.42843 14.3926ZM7.42843 17.1783C6.91632 17.1783 6.49986 16.7618 6.49986 16.2497C6.49986 15.7376 6.91632 15.3211 7.42843 15.3211C7.94054 15.3211 8.357 15.7376 8.357 16.2497C8.357 16.7618 7.94054 17.1783 7.42843 17.1783Z" fill="#A9D8B4"/>
<path d="M15.3213 14.392C15.3213 14.6484 15.5292 14.8563 15.7856 14.8563H23.2141C23.4705 14.8563 23.6784 14.6484 23.6784 14.392C23.6784 14.1356 23.4705 13.9277 23.2141 13.9277H15.7856C15.5292 13.9277 15.3213 14.1356 15.3213 14.392Z" fill="#A9D8B4"/>
<path d="M22.2857 18.1063C22.5421 18.1063 22.75 17.8984 22.75 17.642C22.75 17.3856 22.5421 17.1777 22.2857 17.1777H16.7143C16.4579 17.1777 16.25 17.3856 16.25 17.642C16.25 17.8984 16.4579 18.1063 16.7143 18.1063H22.2857Z" fill="#A9D8B4"/>
<path d="M23.2141 20.4277H15.7856C15.5292 20.4277 15.3213 20.6356 15.3213 20.892C15.3213 21.1484 15.5292 21.3563 15.7856 21.3563H23.2141C23.4705 21.3563 23.6784 21.1484 23.6784 20.892C23.6784 20.6356 23.4705 20.4277 23.2141 20.4277Z" fill="#A9D8B4"/>
</svg>
