<svg width="26" height="26" viewBox="0 0 26 26" fill="none" xmlns="http://www.w3.org/2000/svg">
<path d="M25.5357 8.82143H18.9227L17.7043 4.51634C17.6476 4.31665 17.4651 4.17857 17.2575 4.17857H14.8571V0.464286C14.8571 0.207907 14.6492 0 14.3929 0H11.6071C11.3508 0 11.1429 0.207907 11.1429 0.464286V4.17857H8.74255C8.53487 4.17857 8.35241 4.31665 8.29572 4.51634L7.07734 8.82143H0.464286C0.207907 8.82143 0 9.02934 0 9.28571V25.5357C0 25.7921 0.207907 26 0.464286 26H25.5357C25.7921 26 26 25.7921 26 25.5357V9.28571C26 9.02934 25.7921 8.82143 25.5357 8.82143ZM11.6071 6.96429H14.3929C14.6492 6.96429 14.8571 6.75638 14.8571 6.5C15.1131 6.5 15.3214 6.70832 15.3214 6.96429C15.3214 7.0883 15.274 7.20256 15.1795 7.29481C15.0954 7.38117 14.9809 7.42857 14.8571 7.42857H11.1429C10.8869 7.42857 10.6786 7.22025 10.6786 6.96429C10.6786 6.84027 10.726 6.72601 10.8207 6.63353C10.9046 6.5474 11.0188 6.5 11.1429 6.5C11.1429 6.75638 11.3508 6.96429 11.6071 6.96429ZM12.0714 0.928571H13.9286V4.64286V6.03571H12.0714V4.64286V0.928571ZM9.09369 5.10714H11.1429V5.57143C10.7663 5.57143 10.4156 5.71856 10.1642 5.97698C9.89713 6.23703 9.75 6.58775 9.75 6.96429C9.75 7.73235 10.3748 8.35714 11.1429 8.35714H14.8571C15.2334 8.35714 15.5839 8.21001 15.8358 7.95159C16.1029 7.69154 16.25 7.34082 16.25 6.96429C16.25 6.19622 15.6252 5.57143 14.8571 5.57143V5.10714H16.9063L17.9576 8.82143H8.0425L9.09369 5.10714ZM25.0714 25.0714H0.928571V9.75H7.42857H18.5714H25.0714V25.0714Z" fill="#A9D8B4"/>
<path d="M7.42865 12.5351C4.61257 12.5351 2.3215 14.8262 2.3215 17.6422C2.3215 19.1217 2.96375 20.5273 4.08207 21.4971C5.00568 22.3046 6.19402 22.7494 7.42865 22.7494C7.58297 22.7494 7.73656 22.7424 7.88903 22.7287C8.95619 22.6325 9.96694 22.2038 10.7739 21.4982C10.774 21.4981 10.7741 21.498 10.7741 21.4979C10.7745 21.4976 10.7749 21.4973 10.7752 21.4971C10.7755 21.4968 10.7757 21.4964 10.7761 21.4961C11.8943 20.5252 12.5358 19.1207 12.5358 17.6422C12.5358 14.8262 10.2447 12.5351 7.42865 12.5351ZM7.07161 21.8048C7.03298 21.8015 6.99486 21.7953 6.95642 21.791C6.87703 21.782 6.79773 21.7723 6.71926 21.7588C6.67446 21.7511 6.63026 21.7411 6.58583 21.7319C6.51433 21.7172 6.44306 21.7018 6.37258 21.6834C6.32685 21.6714 6.28163 21.658 6.23636 21.6445C6.16816 21.6242 6.10046 21.6025 6.03351 21.5788C5.98876 21.5629 5.94437 21.5464 5.90022 21.529C5.83359 21.5028 5.76794 21.4745 5.70276 21.4449C5.66055 21.4257 5.6183 21.4066 5.5767 21.386C5.51012 21.353 5.44489 21.3172 5.38008 21.2805C5.34228 21.2592 5.30403 21.2388 5.26688 21.2162C5.19655 21.1735 5.12825 21.1272 5.06042 21.0802C5.03098 21.0598 5.00057 21.041 4.97165 21.0198C4.96607 21.0158 4.96101 21.011 4.95544 21.0069C5.42381 20.0935 6.38001 19.4994 7.42865 19.4994C8.47728 19.4994 9.43343 20.0934 9.90185 21.007C9.89642 21.011 9.8914 21.0156 9.88597 21.0196C9.85454 21.0427 9.82157 21.0631 9.78954 21.0852C9.72445 21.1301 9.65903 21.1745 9.59161 21.2155C9.55247 21.2393 9.51217 21.2608 9.47229 21.2833C9.40952 21.3186 9.34647 21.3534 9.28198 21.3854C9.23908 21.4067 9.19544 21.4264 9.1518 21.4462C9.088 21.4751 9.0237 21.5028 8.95851 21.5285C8.91343 21.5463 8.86793 21.5632 8.8222 21.5794C8.75618 21.6028 8.68946 21.6241 8.62223 21.6441C8.57631 21.6578 8.5304 21.6715 8.48401 21.6836C8.41414 21.7018 8.34343 21.7172 8.27253 21.7318C8.22764 21.741 8.18297 21.7512 8.1377 21.7589C8.05947 21.7723 7.98045 21.7819 7.90129 21.7909C7.86271 21.7953 7.82445 21.8014 7.78568 21.8047C7.66738 21.8149 7.54834 21.8208 7.42865 21.8208C7.30895 21.8208 7.18991 21.8149 7.07161 21.8048ZM10.5937 20.3587C9.93207 19.2701 8.73705 18.5708 7.42865 18.5708C6.1202 18.5708 4.92508 19.2702 4.26352 20.3588C3.61654 19.6062 3.25007 18.6466 3.25007 17.6422C3.25007 15.3383 5.12467 13.4637 7.42865 13.4637C9.73262 13.4637 11.6072 15.3383 11.6072 17.6422C11.6072 18.6463 11.241 19.6055 10.5937 20.3587Z" fill="#A9D8B4"/>
<path d="M7.42865 14.393C6.40462 14.393 5.5715 15.2261 5.5715 16.2501C5.5715 17.2741 6.40462 18.1073 7.42865 18.1073C8.45267 18.1073 9.28579 17.2741 9.28579 16.2501C9.28579 15.2261 8.45267 14.393 7.42865 14.393ZM7.42865 17.1787C6.91654 17.1787 6.50007 16.7622 6.50007 16.2501C6.50007 15.738 6.91654 15.3215 7.42865 15.3215C7.94075 15.3215 8.35722 15.738 8.35722 16.2501C8.35722 16.7622 7.94075 17.1787 7.42865 17.1787Z" fill="#A9D8B4"/>
<path d="M15.3215 14.3924C15.3215 14.6487 15.5294 14.8566 15.7858 14.8566H23.2144C23.4707 14.8566 23.6786 14.6487 23.6786 14.3924C23.6786 14.136 23.4707 13.9281 23.2144 13.9281H15.7858C15.5294 13.9281 15.3215 14.136 15.3215 14.3924Z" fill="#A9D8B4"/>
<path d="M22.2857 18.1066C22.5421 18.1066 22.75 17.8987 22.75 17.6424C22.75 17.386 22.5421 17.1781 22.2857 17.1781H16.7143C16.4579 17.1781 16.25 17.386 16.25 17.6424C16.25 17.8987 16.4579 18.1066 16.7143 18.1066H22.2857Z" fill="#A9D8B4"/>
<path d="M23.2144 20.4281H15.7858C15.5294 20.4281 15.3215 20.636 15.3215 20.8924C15.3215 21.1487 15.5294 21.3566 15.7858 21.3566H23.2144C23.4707 21.3566 23.6786 21.1487 23.6786 20.8924C23.6786 20.636 23.4707 20.4281 23.2144 20.4281Z" fill="#A9D8B4"/>
</svg>
